<?xml version="1.0" encoding="UTF-8"?>
<svg xmlns="http://www.w3.org/2000/svg" xmlns:xlink="http://www.w3.org/1999/xlink" width="24px" height="26px" viewBox="0 0 24 25" version="1.1">
<g id="surface1">
<path style=" stroke:none;fill-rule:evenodd;fill:rgb(0%,0%,0%);fill-opacity:1;" d="M 2.539062 15.601562 C 2.269531 15.066406 2.390625 14.777344 2.859375 14.707031 L 11.070312 14.714844 L 11.070312 2.171875 C 8.828125 5.902344 10.125 9.679688 10.390625 11.574219 C 10.433594 11.882812 10.621094 12.410156 10.234375 12.53125 L 5.078125 14.523438 C 4.898438 14.578125 4.742188 14.570312 4.613281 14.503906 C 4.355469 14.371094 4.125 13.800781 4 13.539062 C 1.828125 8.871094 3.800781 5.269531 8.441406 2.359375 C 9.070312 1.964844 10.339844 1.179688 11.066406 1.0625 L 11.066406 0.554688 C 11.066406 0.25 11.324219 0.00390625 11.636719 0.00390625 C 11.953125 0.00390625 12.207031 0.25 12.207031 0.554688 L 12.207031 14.71875 L 22.136719 14.730469 C 22.660156 14.707031 22.8125 15.171875 22.445312 15.457031 C 21.222656 16.371094 19.542969 17.265625 17.667969 17.964844 C 16.949219 17.929688 16.253906 17.769531 15.691406 17.496094 C 15.179688 17.246094 14.78125 16.90625 14.582031 16.484375 C 14.558594 16.429688 14.519531 16.378906 14.464844 16.339844 C 14.292969 16.21875 14.054688 16.25 13.929688 16.417969 C 13.445312 17.046875 12.949219 17.488281 12.464844 17.746094 C 12.09375 17.945312 11.730469 18.03125 11.390625 18.011719 C 11.050781 17.996094 10.71875 17.871094 10.40625 17.648438 C 10.042969 17.386719 9.707031 16.992188 9.402344 16.46875 C 9.367188 16.394531 9.300781 16.335938 9.21875 16.296875 C 9.023438 16.21875 8.800781 16.300781 8.714844 16.488281 C 8.472656 17.015625 8.058594 17.390625 7.554688 17.628906 C 7.078125 17.855469 6.523438 17.960938 5.957031 17.957031 C 5.390625 17.957031 4.820312 17.839844 4.316406 17.625 C 4.296875 17.617188 4.28125 17.609375 4.265625 17.605469 C 3.59375 17.070312 3.007812 16.410156 2.539062 15.601562 Z M 0.398438 22.058594 C 0.195312 22.070312 0.0273438 21.921875 0.015625 21.726562 C 0.00390625 21.53125 0.160156 21.367188 0.359375 21.359375 C 0.851562 21.332031 1.210938 21.1875 1.496094 20.949219 C 1.800781 20.695312 2.042969 20.320312 2.277344 19.847656 C 2.367188 19.671875 2.585938 19.601562 2.765625 19.6875 C 2.851562 19.726562 2.914062 19.792969 2.945312 19.875 C 3.230469 20.417969 3.707031 20.820312 4.261719 21.054688 C 4.628906 21.210938 5.027344 21.296875 5.421875 21.296875 C 5.816406 21.296875 6.203125 21.214844 6.550781 21.050781 C 7.019531 20.828125 7.417969 20.449219 7.671875 19.894531 C 7.75 19.714844 7.96875 19.636719 8.152344 19.710938 C 8.230469 19.746094 8.292969 19.804688 8.328125 19.871094 C 8.523438 20.210938 8.789062 20.492188 9.097656 20.71875 C 9.636719 21.105469 10.316406 21.316406 11.03125 21.347656 C 11.75 21.375 12.496094 21.214844 13.160156 20.863281 C 13.625 20.617188 14.050781 20.269531 14.394531 19.828125 C 14.515625 19.667969 14.742188 19.636719 14.902344 19.753906 C 14.953125 19.789062 14.992188 19.839844 15.019531 19.890625 C 15.238281 20.363281 15.640625 20.726562 16.132812 20.964844 C 16.582031 21.183594 17.109375 21.300781 17.640625 21.3125 C 18.175781 21.324219 18.71875 21.226562 19.207031 21.011719 C 19.785156 20.761719 20.289062 20.339844 20.597656 19.746094 C 20.6875 19.574219 20.90625 19.503906 21.085938 19.59375 C 21.171875 19.632812 21.230469 19.699219 21.261719 19.777344 C 21.492188 20.339844 21.824219 20.757812 22.226562 21.015625 C 22.613281 21.265625 23.074219 21.367188 23.570312 21.296875 C 23.765625 21.269531 23.953125 21.402344 23.980469 21.59375 C 24.011719 21.785156 23.871094 21.964844 23.675781 21.992188 C 23 22.089844 22.363281 21.949219 21.820312 21.601562 C 21.457031 21.367188 21.136719 21.039062 20.882812 20.625 C 20.511719 21.082031 20.035156 21.421875 19.507812 21.652344 C 18.921875 21.910156 18.265625 22.027344 17.625 22.015625 C 16.984375 22.003906 16.351562 21.859375 15.804688 21.59375 C 15.339844 21.367188 14.929688 21.050781 14.628906 20.644531 C 14.292969 20.988281 13.914062 21.265625 13.507812 21.484375 C 12.730469 21.898438 11.847656 22.085938 11 22.050781 C 10.148438 22.015625 9.324219 21.757812 8.664062 21.285156 C 8.433594 21.121094 8.21875 20.925781 8.035156 20.707031 C 7.722656 21.148438 7.320312 21.46875 6.867188 21.683594 C 6.417969 21.898438 5.921875 22 5.421875 22 C 4.921875 22 4.425781 21.894531 3.96875 21.703125 C 3.453125 21.480469 2.988281 21.144531 2.628906 20.703125 C 2.4375 21.011719 2.226562 21.269531 1.972656 21.484375 C 1.566406 21.824219 1.066406 22.027344 0.398438 22.058594 Z M 0.398438 25 C 0.195312 25.011719 0.0273438 24.863281 0.015625 24.667969 C 0.00390625 24.472656 0.160156 24.308594 0.359375 24.296875 C 0.851562 24.273438 1.210938 24.128906 1.496094 23.890625 C 1.800781 23.636719 2.042969 23.261719 2.277344 22.789062 C 2.367188 22.613281 2.585938 22.539062 2.765625 22.625 C 2.851562 22.667969 2.914062 22.734375 2.945312 22.8125 C 3.230469 23.359375 3.707031 23.757812 4.261719 23.996094 C 4.628906 24.152344 5.027344 24.234375 5.421875 24.234375 C 5.816406 24.234375 6.203125 24.15625 6.550781 23.992188 C 7.019531 23.769531 7.417969 23.390625 7.671875 22.832031 C 7.75 22.65625 7.96875 22.574219 8.152344 22.652344 C 8.230469 22.683594 8.292969 22.742188 8.328125 22.8125 C 8.523438 23.152344 8.789062 23.433594 9.097656 23.65625 C 9.636719 24.046875 10.316406 24.257812 11.03125 24.285156 C 11.75 24.3125 12.496094 24.15625 13.160156 23.804688 C 13.625 23.554688 14.050781 23.210938 14.394531 22.765625 C 14.515625 22.609375 14.742188 22.578125 14.902344 22.691406 C 14.953125 22.730469 14.992188 22.777344 15.019531 22.832031 C 15.238281 23.304688 15.640625 23.664062 16.132812 23.90625 C 16.582031 24.125 17.109375 24.242188 17.640625 24.253906 C 18.175781 24.261719 18.71875 24.164062 19.207031 23.953125 C 19.785156 23.699219 20.289062 23.28125 20.597656 22.6875 C 20.6875 22.515625 20.90625 22.445312 21.085938 22.53125 C 21.171875 22.574219 21.230469 22.640625 21.261719 22.71875 C 21.492188 23.277344 21.824219 23.699219 22.226562 23.957031 C 22.613281 24.207031 23.074219 24.304688 23.570312 24.238281 C 23.765625 24.207031 23.953125 24.34375 23.980469 24.535156 C 24.011719 24.726562 23.871094 24.90625 23.675781 24.933594 C 23 25.027344 22.363281 24.890625 21.820312 24.539062 C 21.457031 24.304688 21.136719 23.980469 20.882812 23.5625 C 20.511719 24.019531 20.035156 24.363281 19.507812 24.59375 C 18.921875 24.847656 18.265625 24.96875 17.625 24.957031 C 16.984375 24.941406 16.351562 24.800781 15.804688 24.535156 C 15.339844 24.304688 14.929688 23.988281 14.628906 23.585938 C 14.292969 23.929688 13.914062 24.207031 13.507812 24.425781 C 12.730469 24.839844 11.847656 25.027344 11 24.992188 C 10.148438 24.957031 9.324219 24.699219 8.664062 24.226562 C 8.433594 24.058594 8.21875 23.867188 8.035156 23.648438 C 7.722656 24.085938 7.320312 24.410156 6.867188 24.625 C 6.417969 24.835938 5.921875 24.941406 5.421875 24.9375 C 4.921875 24.9375 4.425781 24.835938 3.96875 24.640625 C 3.453125 24.421875 2.988281 24.085938 2.628906 23.644531 C 2.4375 23.949219 2.226562 24.210938 1.972656 24.425781 C 1.566406 24.761719 1.066406 24.964844 0.398438 25 Z M 16.183594 18.46875 C 12.832031 19.484375 9.078125 19.828125 6.183594 18.6875 C 6.78125 18.664062 7.371094 18.53125 7.886719 18.285156 C 8.351562 18.066406 8.761719 17.753906 9.074219 17.347656 C 9.34375 17.714844 9.636719 18.011719 9.949219 18.234375 C 10.382812 18.546875 10.851562 18.71875 11.34375 18.746094 C 11.832031 18.773438 12.332031 18.65625 12.832031 18.390625 C 13.289062 18.144531 13.746094 17.773438 14.195312 17.269531 C 14.484375 17.628906 14.878906 17.925781 15.347656 18.148438 C 15.605469 18.277344 15.886719 18.382812 16.183594 18.46875 Z M 16.183594 18.46875 "/>
</g>
</svg>
