<svg width="24" height="19" viewBox="0 0 24 19" fill="none" xmlns="http://www.w3.org/2000/svg">
<path fill-rule="evenodd" clip-rule="evenodd" d="M16.6667 4.40333C16.1515 4.40333 15.7333 3.98427 15.7333 3.47C15.7333 2.95573 16.1515 2.53667 16.6667 2.53667C17.1819 2.53667 17.6 2.95573 17.6 3.47C17.6 3.98427 17.1819 4.40333 16.6667 4.40333ZM18.748 1.61547C18.2347 1.0396 17.4964 0.67 16.6667 0.67C15.5635 0.67 14.7384 1.34387 14.1691 2.53667C10.3966 2.53667 0.800049 6.0824 0.800049 12.7193C0.800049 13.8253 1.54672 14.67 2.54258 15.1507C2.09832 15.7256 1.73338 16.4947 1.73338 17.47C1.73338 17.9852 2.15058 18.4033 2.66672 18.4033H12.9333C13.4495 18.4033 13.8667 17.9852 13.8667 17.47C13.8667 16.9548 13.4495 16.5367 12.9333 16.5367H8.04645C8.04645 16.5367 11.0667 15.468 11.0667 12.8033C11.0667 12.192 10.7363 10.9367 9.20005 10.9367C8.68392 10.9367 8.26672 10.5185 8.26672 10.0033C8.26672 9.48813 8.68392 9.07 9.20005 9.07C11.7088 9.07 12.8325 10.8349 12.8325 12.5737C12.8325 13.4175 12.3257 14.9295 12.3257 14.9295C12.9473 14.9873 13.7537 14.9743 14.6889 14.7223C15.3283 15.9729 16.3969 17.6707 16.9952 18.1803C17.1632 18.3249 17.3788 18.4033 17.6 18.4033H19.4667C19.9828 18.4033 20.4 17.9852 20.4 17.47C20.4 16.9548 19.9828 16.5367 19.4667 16.5367H17.992C17.8315 15.6388 17.5208 14.5729 17.2985 13.4175C18.1171 12.9275 20.4 10.7183 20.4 7.20333C22.5849 6.172 23.2 4.4808 23.2 3.79573C23.2 2.4648 20.2889 1.73493 18.748 1.61547Z" fill="white"/>
</svg>
