<svg width="24" height="24" viewBox="0 0 24 24" fill="none" xmlns="http://www.w3.org/2000/svg">
<path fill-rule="evenodd" clip-rule="evenodd" d="M16.6667 2.66667C16.3372 2.66667 16.0617 2.84746 15.8956 3.10599L15.881 3.09688L13.0828 6.85573C12.996 6.99666 12.9333 7.15507 12.9333 7.33333C12.9333 7.84853 13.3515 8.26667 13.8667 8.26667H14.3333L11.3237 12.299C11.1669 12.466 11.0667 12.6869 11.0667 12.9333C11.0667 13.4485 11.4848 13.8667 12 13.8667H13.4L10.3211 17.9992C10.211 18.1523 10.1334 18.3308 10.1334 18.5333C10.1334 19.0485 10.5515 19.4667 11.0667 19.4667H15.7333V22.2667C15.7333 22.7819 16.1515 23.2 16.6667 23.2C17.1819 23.2 17.6 22.7819 17.6 22.2667V19.4667H22.2668C22.7819 19.4667 23.2001 19.0485 23.2001 18.5333C23.2001 18.3308 23.1224 18.1523 23.0122 17.9992L19.9333 13.8667H21.3333C21.8485 13.8667 22.2668 13.4485 22.2668 12.9333C22.2668 12.6869 22.1664 12.466 22.0096 12.299L19 8.26667H19.4667C19.9819 8.26667 20.4 7.84853 20.4 7.33333C20.4 7.15507 20.3373 6.99666 20.2505 6.85573L17.4523 3.09688L17.4378 3.10599C17.2716 2.84746 16.9961 2.66667 16.6667 2.66667ZM7.33338 0.800003C6.30205 0.800003 5.46672 1.63533 5.46672 2.66667C3.92018 2.66667 2.66672 3.92013 2.66672 5.46667C2.66672 5.55067 2.68477 5.63063 2.69224 5.71276C2.1229 6.03289 1.73338 6.63427 1.73338 7.33333C1.73338 7.55547 1.77911 7.7662 1.85005 7.96406C1.21445 8.4774 0.800049 9.2532 0.800049 10.1333C0.800049 10.9771 1.18087 11.7255 1.77167 12.2388C1.19487 12.5571 0.800059 13.162 0.800059 13.8667C0.800059 14.898 1.63539 15.7333 2.66673 15.7333C2.66673 17.2799 3.92019 18.5333 5.46673 18.5333H6.40006V22.2667C6.40006 22.7819 6.81819 23.2 7.33339 23.2C7.84859 23.2 8.26673 22.7819 8.26673 22.2667V18.5333C8.26673 17.9631 8.45307 17.4007 8.82454 16.8836L10.1826 15.0607C9.58155 14.5473 9.20006 13.7845 9.20006 12.9333C9.20006 12.2679 9.43867 11.6282 9.87454 11.1195L11.5407 8.8901C11.2421 8.44397 11.0668 7.90827 11.0668 7.33333C11.0668 6.83027 11.2096 6.3406 11.4915 5.88047C11.5204 5.83287 11.5527 5.78673 11.5863 5.74193L12.6399 4.32552C12.4197 4.14912 12.1767 3.99646 11.9144 3.88073C11.6195 2.6506 10.5207 1.73333 9.20006 1.73333C9.11606 1.73333 9.0361 1.75139 8.95397 1.75885C8.63383 1.18952 8.03246 0.800003 7.33339 0.800003H7.33338Z" fill="white"/>
</svg>
