<svg width="869" height="869" viewBox="0 0 869 869" fill="none" xmlns="http://www.w3.org/2000/svg">
<g filter="url(#filter0_d_104_27)">
<path d="M405.6 486.2C382.133 478.2 360.8 470.2 341.6 462.2C322.4 453.667 305.867 443.533 292 431.8C278.133 420.067 267.2 406.2 259.2 390.2C251.733 373.667 248 353.667 248 330.2C248 284.867 265.333 248.6 300 221.4C335.2 194.2 384.267 180.6 447.2 180.6C470.133 180.6 491.467 182.2 511.2 185.4C530.933 188.6 547.733 193.667 561.6 200.6C576 207 587.2 215.533 595.2 226.2C603.2 236.333 607.2 248.333 607.2 262.2C607.2 276.067 604 288.067 597.6 298.2C591.2 307.8 583.467 316.067 574.4 323C562.667 315.533 546.933 309.133 527.2 303.8C507.467 297.933 485.867 295 462.4 295C438.4 295 420.8 298.467 409.6 305.4C398.4 311.8 392.8 320.067 392.8 330.2C392.8 338.2 396.267 344.867 403.2 350.2C410.133 355 420.533 359.533 434.4 363.8L476.8 377.4C526.933 393.4 565.333 413.933 592 439C619.2 463.533 632.8 497.133 632.8 539.8C632.8 585.133 614.933 621.933 579.2 650.2C543.467 677.933 490.933 691.8 421.6 691.8C397.067 691.8 374.133 689.667 352.8 685.4C332 681.667 313.6 676.067 297.6 668.6C282.133 660.6 269.867 651 260.8 639.8C252.267 628.067 248 614.733 248 599.8C248 584.333 252.533 571.267 261.6 560.6C270.667 549.4 280.533 540.867 291.2 535C306.133 546.733 324.267 556.867 345.6 565.4C367.467 573.933 391.2 578.2 416.8 578.2C442.933 578.2 461.333 574.2 472 566.2C482.667 558.2 488 548.867 488 538.2C488 527.533 483.733 519.533 475.2 514.2C466.667 508.333 454.667 502.733 439.2 497.4L405.6 486.2Z" fill="white"/>
</g>
<circle cx="434.5" cy="434.5" r="424.5" stroke="white" stroke-width="20"/>
<defs>
<filter id="filter0_d_104_27" x="244" y="180.6" width="392.8" height="519.2" filterUnits="userSpaceOnUse" color-interpolation-filters="sRGB">
<feFlood flood-opacity="0" result="BackgroundImageFix"/>
<feColorMatrix in="SourceAlpha" type="matrix" values="0 0 0 0 0 0 0 0 0 0 0 0 0 0 0 0 0 0 127 0" result="hardAlpha"/>
<feOffset dy="4"/>
<feGaussianBlur stdDeviation="2"/>
<feComposite in2="hardAlpha" operator="out"/>
<feColorMatrix type="matrix" values="0 0 0 0 0 0 0 0 0 0 0 0 0 0 0 0 0 0 0.25 0"/>
<feBlend mode="normal" in2="BackgroundImageFix" result="effect1_dropShadow_104_27"/>
<feBlend mode="normal" in="SourceGraphic" in2="effect1_dropShadow_104_27" result="shape"/>
</filter>
</defs>
</svg>
