<?xml version="1.0" encoding="UTF-8"?>
<svg xmlns="http://www.w3.org/2000/svg" xmlns:xlink="http://www.w3.org/1999/xlink" width="28px" height="28px" viewBox="0 0 28 28" version="1.1">
<g id="surface1">
<path style=" stroke:none;fill-rule:nonzero;fill:rgb(0%,0%,0%);fill-opacity:1;" d="M 6.789062 13.085938 C 6.90625 13.074219 7.023438 13.121094 7.105469 13.210938 C 7.117188 13.21875 7.125 13.234375 7.132812 13.242188 C 7.15625 13.25 7.175781 13.257812 7.199219 13.269531 C 8.671875 13.867188 10.429688 13.921875 12.230469 13.167969 C 12.238281 13.164062 12.246094 13.15625 12.257812 13.152344 C 12.460938 13.070312 12.691406 13.164062 12.773438 13.363281 L 14.101562 16.527344 L 15.421875 13.449219 L 15.425781 13.441406 C 15.515625 13.242188 15.753906 13.15625 15.949219 13.246094 C 16.328125 13.417969 16.714844 13.5625 17.113281 13.660156 C 17.503906 13.753906 17.902344 13.800781 18.304688 13.785156 C 19.269531 13.746094 20.132812 13.535156 20.898438 13.195312 C 20.964844 13.132812 21.046875 13.097656 21.128906 13.085938 C 22.007812 12.65625 22.734375 12.046875 23.300781 11.332031 C 23.78125 10.722656 24.140625 10.039062 24.375 9.324219 C 24.609375 8.609375 24.714844 7.859375 24.683594 7.117188 C 24.621094 5.570312 23.957031 4.058594 22.601562 2.984375 C 22.457031 2.878906 22.398438 2.6875 22.46875 2.515625 L 23.503906 0 C 23.152344 0.179688 22.789062 0.351562 22.417969 0.507812 C 21.695312 0.8125 20.945312 1.078125 20.160156 1.304688 C 20.101562 1.328125 20.035156 1.335938 19.964844 1.328125 C 18.851562 1.160156 17.847656 1.203125 16.9375 1.425781 C 15.96875 1.664062 15.105469 2.105469 14.335938 2.699219 C 14.210938 2.800781 14.03125 2.8125 13.886719 2.71875 C 12.835938 2.050781 11.839844 1.589844 10.898438 1.371094 C 9.984375 1.160156 9.113281 1.175781 8.292969 1.445312 C 8.222656 1.472656 8.140625 1.472656 8.0625 1.449219 C 7.273438 1.21875 6.503906 0.933594 5.789062 0.621094 C 5.371094 0.441406 4.980469 0.25 4.605469 0.0585938 C 4.679688 0.246094 4.761719 0.433594 4.84375 0.617188 C 5.097656 1.191406 5.390625 1.757812 5.691406 2.28125 C 5.804688 2.449219 5.769531 2.675781 5.609375 2.804688 C 5.179688 3.152344 4.816406 3.523438 4.519531 3.90625 C 4.222656 4.289062 3.996094 4.695312 3.824219 5.121094 C 3.128906 6.824219 3.207031 8.519531 3.808594 9.941406 C 4.125 10.695312 4.589844 11.371094 5.164062 11.941406 C 5.640625 12.398438 6.1875 12.789062 6.789062 13.085938 Z M 9.558594 5.839844 C 10.015625 5.839844 10.429688 6.027344 10.730469 6.324219 C 11.03125 6.625 11.21875 7.039062 11.21875 7.496094 C 11.21875 7.957031 11.03125 8.371094 10.730469 8.671875 C 10.429688 8.972656 10.015625 9.15625 9.558594 9.15625 C 9.101562 9.15625 8.6875 8.96875 8.386719 8.671875 C 8.085938 8.371094 7.898438 7.957031 7.898438 7.496094 C 7.898438 7.039062 8.085938 6.625 8.386719 6.324219 C 8.6875 6.027344 9.101562 5.839844 9.558594 5.839844 Z M 18.304688 5.839844 C 18.765625 5.839844 19.179688 6.027344 19.480469 6.324219 C 19.78125 6.625 19.964844 7.039062 19.964844 7.496094 C 19.964844 7.957031 19.777344 8.371094 19.480469 8.671875 C 19.179688 8.972656 18.765625 9.15625 18.304688 9.15625 C 17.847656 9.15625 17.433594 8.96875 17.136719 8.671875 C 16.835938 8.371094 16.648438 7.957031 16.648438 7.496094 C 16.648438 7.039062 16.835938 6.625 17.136719 6.324219 C 17.433594 6.027344 17.847656 5.839844 18.304688 5.839844 Z M 18.304688 3.464844 C 19.410156 3.464844 20.40625 3.910156 21.128906 4.636719 C 21.851562 5.359375 22.300781 6.355469 22.300781 7.460938 C 22.300781 8.5625 21.855469 9.558594 21.128906 10.28125 C 20.40625 11.003906 19.410156 11.453125 18.304688 11.453125 C 17.203125 11.453125 16.207031 11.007812 15.484375 10.28125 C 14.761719 9.558594 14.3125 8.5625 14.3125 7.460938 C 14.3125 6.355469 14.761719 5.359375 15.484375 4.636719 C 16.207031 3.914062 17.203125 3.464844 18.304688 3.464844 Z M 9.558594 3.464844 C 10.660156 3.464844 11.660156 3.910156 12.382812 4.636719 C 13.105469 5.359375 13.554688 6.355469 13.554688 7.460938 C 13.554688 8.5625 13.105469 9.558594 12.382812 10.28125 C 11.660156 11.003906 10.660156 11.453125 9.558594 11.453125 C 8.457031 11.453125 7.457031 11.007812 6.734375 10.28125 C 6.011719 9.558594 5.566406 8.5625 5.566406 7.460938 C 5.566406 6.355469 6.011719 5.359375 6.734375 4.636719 C 7.457031 3.914062 8.457031 3.464844 9.558594 3.464844 Z M 22.207031 15.027344 C 22.503906 15.792969 22.703125 16.558594 22.8125 17.332031 L 22.816406 17.347656 C 22.992188 18.582031 22.933594 19.828125 22.660156 21.070312 C 22.382812 22.335938 21.9375 23.527344 21.289062 24.597656 C 21.253906 24.652344 21.21875 24.710938 21.183594 24.765625 C 21.78125 24.9375 22.855469 24.777344 24.023438 24.429688 C 25.480469 23.996094 27.039062 23.253906 28 22.480469 C 26.953125 20.921875 26.003906 19.523438 24.972656 18.1875 C 24.132812 17.113281 23.242188 16.074219 22.207031 15.027344 Z M 7.074219 14.378906 C 6.859375 15.03125 6.695312 15.6875 6.574219 16.347656 C 6.4375 17.125 6.363281 17.90625 6.363281 18.679688 C 6.355469 20.527344 6.710938 22.347656 7.527344 23.886719 C 7.667969 24.15625 7.824219 24.414062 7.992188 24.664062 C 8.007812 24.679688 8.019531 24.699219 8.03125 24.71875 C 8.714844 25.703125 9.628906 26.535156 10.804688 27.132812 C 10.808594 27.136719 10.8125 27.136719 10.816406 27.140625 C 11.316406 27.421875 11.816406 27.632812 12.324219 27.773438 C 12.828125 27.917969 13.339844 27.988281 13.855469 27.996094 C 14.605469 28.003906 15.347656 27.878906 16.054688 27.640625 C 16.796875 27.386719 17.507812 27.011719 18.148438 26.539062 C 19.046875 25.882812 19.753906 25.085938 20.296875 24.183594 C 20.898438 23.195312 21.308594 22.082031 21.570312 20.902344 C 21.824219 19.742188 21.878906 18.59375 21.71875 17.449219 L 21.714844 17.4375 C 21.570312 16.417969 21.253906 15.40625 20.757812 14.40625 C 20.023438 14.671875 19.214844 14.835938 18.335938 14.875 C 17.851562 14.894531 17.382812 14.835938 16.925781 14.726562 C 16.605469 14.652344 16.296875 14.546875 15.988281 14.425781 L 14.460938 18.003906 C 14.375 18.203125 14.144531 18.296875 13.945312 18.210938 C 13.84375 18.171875 13.777344 18.09375 13.734375 18 L 12.199219 14.332031 C 10.375 15.011719 8.601562 14.949219 7.074219 14.378906 Z M 5.734375 15.085938 C 4.722656 16.109375 3.851562 17.128906 3.027344 18.195312 C 2 19.527344 1.046875 20.929688 0 22.488281 C 0.960938 23.261719 2.515625 24 3.976562 24.4375 C 5.140625 24.785156 6.214844 24.941406 6.816406 24.773438 C 6.710938 24.605469 6.613281 24.433594 6.519531 24.257812 C 5.644531 22.601562 5.261719 20.65625 5.265625 18.6875 C 5.269531 17.855469 5.339844 17.03125 5.488281 16.21875 C 5.554688 15.835938 5.636719 15.460938 5.734375 15.085938 Z M 5.734375 15.085938 "/>
</g>
</svg>
