<svg width="22" height="24" viewBox="0 0 22 24" fill="none" xmlns="http://www.w3.org/2000/svg">
<path fill-rule="evenodd" clip-rule="evenodd" d="M10.8609 0.814529C10.5476 0.851239 10.2667 1.10831 10.2667 1.47989V6.40177L10.2721 6.3963C10.271 7.11448 10.4688 7.82319 10.8501 8.46725C11.2314 9.11131 11.7859 9.67334 12.4705 10.1096C10.4023 11.6907 6.92665 12.732 6.56432 18.464C6.52979 19.0044 6.95632 19.4684 7.49766 19.4684H9.33333C9.84947 19.4684 10.2667 19.8856 10.2667 20.4018C10.2667 20.9179 9.84947 21.3351 9.33333 21.3351H1.86667C1.74299 21.3334 1.6202 21.3562 1.50543 21.4023C1.39066 21.4484 1.2862 21.5169 1.19812 21.6038C1.11004 21.6906 1.0401 21.7941 0.992364 21.9082C0.944624 22.0223 0.920044 22.1447 0.920044 22.2684C0.920044 22.3921 0.944624 22.5146 0.992364 22.6287C1.0401 22.7428 1.11004 22.8463 1.19812 22.9331C1.2862 23.02 1.39066 23.0884 1.50543 23.1345C1.6202 23.1807 1.74299 23.2035 1.86667 23.2018H10.2667H17.7333C18.112 23.2012 18.4816 23.0855 18.793 22.87C19.1044 22.6545 19.3428 22.3494 19.4767 21.9951C19.6107 21.6409 19.6336 21.2543 19.5427 20.8867C19.4517 20.5191 19.2511 20.1878 18.9674 19.9369C19.2414 18.5984 19.6 16.5623 19.6 14.8018C19.6 13.5095 19.2006 11.83 18.7724 10.3848C19.5937 9.9683 20.2726 9.38254 20.7435 8.68397C21.2144 7.9854 21.4616 7.19755 21.4612 6.3963L21.4666 6.40177V1.47989C21.4666 0.885359 20.7482 0.586819 20.3273 1.00776L18.869 2.46609C17.9718 1.98973 16.9304 1.73618 15.8666 1.7351C14.8032 1.73701 13.7625 1.99119 12.8661 2.46791L11.4059 1.00776C11.2481 0.849909 11.0489 0.792499 10.8609 0.814529Z" fill="white"/>
</svg>
